<svg width="27" height="24" viewBox="0 0 18 16" fill="none" xmlns="http://www.w3.org/2000/svg"><path d="M10.7175 3.09494V0.660671C10.7175 0.112103 11.3232 -0.182752 11.7346 0.123532L11.8055 0.185245L16.9449 5.23664C17.1849 5.47321 17.2066 5.85264 17.01 6.11435L16.9449 6.18863L11.8055 11.2435C11.4192 11.6229 10.7918 11.3795 10.7232 10.8617L10.7175 10.768V8.37262L10.4226 8.39891C8.3655 8.61948 6.39294 9.56918 4.49466 11.264C4.04895 11.6617 3.36096 11.2869 3.4341 10.6857C4.00324 6.01149 6.38837 3.43437 10.4603 3.11208L10.7175 3.09494V3.09494Z" fill="#0066cc"></path><path d="M2.85712 1.14294C2.09937 1.14294 1.37265 1.44396 0.836832 1.97978C0.301018 2.51559 0 3.24231 0 4.00007V13.1429C0 13.9006 0.301018 14.6273 0.836832 15.1632C1.37265 15.699 2.09937 16 2.85712 16H11.9999C12.7577 16 13.4844 15.699 14.0202 15.1632C14.556 14.6273 14.857 13.9006 14.857 13.1429V12C14.857 11.8485 14.7968 11.7031 14.6897 11.596C14.5825 11.4888 14.4372 11.4286 14.2856 11.4286C14.1341 11.4286 13.9887 11.4888 13.8816 11.596C13.7744 11.7031 13.7142 11.8485 13.7142 12V13.1429C13.7142 13.5975 13.5336 14.0336 13.2121 14.355C12.8906 14.6765 12.4546 14.8571 11.9999 14.8571H2.85712C2.40247 14.8571 1.96644 14.6765 1.64495 14.355C1.32346 14.0336 1.14285 13.5975 1.14285 13.1429V4.00007C1.14285 3.54541 1.32346 3.10938 1.64495 2.78789C1.96644 2.4664 2.40247 2.28579 2.85712 2.28579H6.28567C6.43722 2.28579 6.58257 2.22559 6.68973 2.11843C6.7969 2.01126 6.8571 1.86592 6.8571 1.71437C6.8571 1.56282 6.7969 1.41747 6.68973 1.31031C6.58257 1.20315 6.43722 1.14294 6.28567 1.14294H2.85712Z" fill="#0066cc"></path></svg>